<svg id="30844f2a-05f7-442f-874a-f5879fd090b0" data-name="Layer 1" xmlns="http://www.w3.org/2000/svg" viewBox="0 0 1024 1024"><defs><style>.\31 0ca419f-2c30-4a24-b117-78e006114c34{fill:#f1f8fc;}.efa2fe87-c721-46c9-bde1-c647f8bf71f0{fill:#e6af78;}.e9c7201d-b29f-4448-8555-45b661edf01f{fill:#eff2fa;}.ad833b90-3c03-4c7c-9f7b-7cf315f5caf4{fill:#d29b6e;}.e4899ecb-fa70-4f7c-b3e2-67fa0197b4aa{fill:#f0c087;}.\36 dc7eae8-4e44-4d5a-8a3f-d06472afc2f4{fill:#e4eaf6;}.f52c1c8d-8c06-4c0b-adb7-7ee82fb662d1{fill:#5b5d6e;}.cb645b87-5f1b-4272-a118-ca4df1924524{fill:#515262;}.\31 ab215f1-565d-42c1-83ab-dd852cf20f03{fill:#785550;}.\33 38d997e-2ae2-4adf-8689-6768f73910c7{fill:#694b4b;}.\38 7b0ceda-5221-4b1f-8f11-02df963c0c06{fill:#5a4146;}</style></defs><title>avatar</title><rect class="10ca419f-2c30-4a24-b117-78e006114c34" width="1024" height="1024"/><polygon class="efa2fe87-c721-46c9-bde1-c647f8bf71f0" points="614.298 652.41 614.298 577.515 421.707 577.515 421.707 652.41 518.002 738.006 614.298 652.41"/><path class="e9c7201d-b29f-4448-8555-45b661edf01f" d="M763.1944,687.44537,630.79591,656.29272a21.24962,21.24962,0,0,1-5.56-2.23758L518.001,716.60893,414.94789,651.02969a21.32008,21.32008,0,0,1-9.74057,5.26422L272.80883,687.44659a42.79816,42.79816,0,0,0-32.99629,41.6605v83.7986a21.398,21.398,0,0,0,21.39874,21.39877h513.577A21.398,21.398,0,0,0,796.187,812.90573v-83.7986A42.793,42.793,0,0,0,763.1944,687.44537Z"/><path class="ad833b90-3c03-4c7c-9f7b-7cf315f5caf4" d="M421.70667,577.51471v79.02163c121.30638,43.70537,192.59106-65.67863,192.59106-65.67863V577.51349H421.70667Z"/><path class="e4899ecb-fa70-4f7c-b3e2-67fa0197b4aa" d="M378.908,331.42679l9.32362,205.12436a64.19682,64.19682,0,0,0,25.61207,48.44231l44.2399,33.18053a64.20454,64.20454,0,0,0,38.5187,12.84H539.401a64.197,64.197,0,0,0,38.51872-12.84l44.23988-33.18053a64.19685,64.19685,0,0,0,25.61207-48.44231l9.3236-205.12438Z"/><path class="efa2fe87-c721-46c9-bde1-c647f8bf71f0" d="M485.9041,374.22427c42.79868,0,106.9949-10.69937,122.22155-42.79869H378.908L388.23159,536.55a64.19633,64.19633,0,0,0,25.61327,48.44231l44.2399,33.18052a64.20453,64.20453,0,0,0,38.5187,12.84h21.39873c-21.39873,0-64.19742-42.79868-64.19742-96.29554V406.32236C453.80478,395.623,464.50415,374.22427,485.9041,374.22427Z"/><path class="6dc7eae8-4e44-4d5a-8a3f-d06472afc2f4" d="M318.36388,764.86459l-69.332-62.28106a42.72287,42.72287,0,0,0-9.21573,26.52356v83.7986a21.398,21.398,0,0,0,21.39874,21.39877h74.8968V804.6633A53.50375,53.50375,0,0,0,318.36388,764.86459Z"/><path class="6dc7eae8-4e44-4d5a-8a3f-d06472afc2f4" d="M717.64175,764.86459l69.332-62.28106a42.72287,42.72287,0,0,1,9.21573,26.52356v83.7986a21.398,21.398,0,0,1-21.39873,21.39877H699.89391V804.6633A53.495,53.495,0,0,1,717.64175,764.86459Z"/><polygon class="f52c1c8d-8c06-4c0b-adb7-7ee82fb662d1" points="544.751 834.303 491.253 834.303 497.94 738.006 538.064 738.006 544.751 834.303"/><path class="cb645b87-5f1b-4272-a118-ca4df1924524" d="M544.75125,716.60775H491.25319v20.13693a11.96161,11.96161,0,0,0,11.9624,11.96238h29.57206A11.96161,11.96161,0,0,0,544.75,736.74468V716.60775Z"/><path class="6dc7eae8-4e44-4d5a-8a3f-d06472afc2f4" d="M420.20486,628.58974l97.79855,88.018s-27.389,13.82665-61.18773,41.69447a13.72852,13.72852,0,0,1-21.25813-4.80727L389.60978,652.41152l14.53573-21.80237A10.6975,10.6975,0,0,1,420.20486,628.58974Z"/><path class="6dc7eae8-4e44-4d5a-8a3f-d06472afc2f4" d="M615.80079,628.58974l-97.79856,88.018s27.389,13.82665,61.18775,41.69447a13.72852,13.72852,0,0,0,21.25813-4.80727L646.3959,652.41152l-14.53573-21.80237A10.69775,10.69775,0,0,0,615.80079,628.58974Z"/><path class="1ab215f1-565d-42c1-83ab-dd852cf20f03" d="M582.86751,260.5421l10.03027,70.88469c45.78777,9.15756,52.38655,81.01435,53.33684,101.538a21.09961,21.09961,0,0,0,3.38182,10.45452l17.47026,27.10055s-5.9794-44.80475,21.39873-74.89681C688.48669,395.623,697.88786,217.74341,582.86751,260.5421Z"/><path class="e4899ecb-fa70-4f7c-b3e2-67fa0197b4aa" d="M677.81884,465.9574l-12.07876,48.31627a12.86115,12.86115,0,0,1-12.48,9.743h0a12.86311,12.86311,0,0,1-12.76482-11.26786l-6.17815-49.41808a22.16064,22.16064,0,0,1,21.99025-24.91024h.00969A22.16242,22.16242,0,0,1,677.81884,465.9574Z"/><path class="338d997e-2ae2-4adf-8689-6768f73910c7" d="M389.1625,241.37124l15.82542,10.81088c-71.55256,52.829-58.17926,143.44088-58.17926,143.44088,21.39873,21.39873,21.39873,74.89681,21.39873,74.89681l21.39873-21.39873s-8.25817-61.81562,32.09811-85.59617c37.44841-22.06783,70.21559-10.69937,103.65187-10.69937,89.60828,0,114.6858-33.77083,110.33914-74.8968-2.24967-21.28-34.78537-65.60713-117.69427-64.19744C484.54169,214.29978,421.70667,224.43067,389.1625,241.37124Z"/><path class="87b0ceda-5221-4b1f-8f11-02df963c0c06" d="M382.9201,343.46313s-11.36846-44.80475,22.06782-91.2798c-71.55256,52.829-58.17926,143.44089-58.17926,143.44089C368.20739,417.023,368.20739,470.521,368.20739,470.521l21.39873-21.39873s-8.25817-61.81562,32.09811-85.59617c37.44841-22.06783,70.21559-10.69937,103.65187-10.69937a262.87993,262.87993,0,0,0,38.58416-2.64848C494.932,352.491,454.25206,300.21837,382.9201,343.46313Z"/><path class="efa2fe87-c721-46c9-bde1-c647f8bf71f0" d="M358.1856,465.9574l12.07876,48.31627a12.86118,12.86118,0,0,0,12.48,9.743h0a12.86312,12.86312,0,0,0,12.76483-11.26786l6.17816-49.41808a22.16064,22.16064,0,0,0-21.99025-24.91024h-.00969A22.1624,22.1624,0,0,0,358.1856,465.9574Z"/><path class="6dc7eae8-4e44-4d5a-8a3f-d06472afc2f4" d="M657.09645,812.90329H582.19964a10.69938,10.69938,0,0,0-10.69936,10.69936V834.302h96.29554V823.60265A10.701,10.701,0,0,0,657.09645,812.90329Z"/></svg>