<svg id="Layer_1" data-name="Layer 1" xmlns="http://www.w3.org/2000/svg" viewBox="0 0 1024 1024"><defs><style>.cls-1{fill:#f2dadd;}.cls-2{fill:#af6675;}</style></defs><title>delete</title><circle class="cls-1" cx="512.1" cy="511.9" r="512"/><path class="cls-2" d="M738.76,356.57l-12.33-37a34.38,34.38,0,0,0-32.66-23.54H590.12V262.32a30.61,30.61,0,0,0-30.58-30.59H464.63a30.62,30.62,0,0,0-30.58,30.59v33.75H330.41a34.39,34.39,0,0,0-32.67,23.54l-12.33,37A27.67,27.67,0,0,0,311.66,393h12.89l28.37,350.84a50.75,50.75,0,0,0,50.3,46.43H626.71A50.74,50.74,0,0,0,677,743.84L705.38,393h7.13a27.67,27.67,0,0,0,26.25-36.43Zm-272-92.12h90.61v31.62H466.78ZM644.38,741.2a17.84,17.84,0,0,1-17.67,16.35H403.22a17.86,17.86,0,0,1-17.68-16.35L357.38,393H672.54ZM318.68,360.28,328.79,330a1.7,1.7,0,0,1,1.62-1.17H693.77a1.71,1.71,0,0,1,1.62,1.17l10.11,30.32Z"/><path class="cls-2" d="M592.19,740l.87,0a16.36,16.36,0,0,0,16.32-15.52l15.37-295a16.37,16.37,0,0,0-32.69-1.7l-15.36,295A16.36,16.36,0,0,0,592.19,740Z"/><path class="cls-2" d="M415.52,724.59a16.37,16.37,0,0,0,16.32,15.48c.3,0,.61,0,.91,0a16.36,16.36,0,0,0,15.45-17.23l-16.1-295a16.36,16.36,0,1,0-32.67,1.78Z"/><path class="cls-2" d="M512.27,740.07a16.36,16.36,0,0,0,16.36-16.37v-295a16.36,16.36,0,0,0-32.72,0v295A16.36,16.36,0,0,0,512.27,740.07Z"/></svg>