<svg id="14a11bd8-84cb-41a3-a7a4-ae1acb3c5b54" data-name="Layer 1" xmlns="http://www.w3.org/2000/svg" viewBox="0 0 1024 1024"><defs><style>.\36 9007781-418c-4741-a85e-344273bc6e06{fill:#c1e2f5;}.\30 2ba95b0-759e-4449-ad71-c3d30887bf94{fill:#fff;}</style></defs><title>email</title><circle class="69007781-418c-4741-a85e-344273bc6e06" cx="511.59742" cy="511.83118" r="512"/><path class="02ba95b0-759e-4449-ad71-c3d30887bf94" d="M766.52735,294.09084H275.47265a51.75517,51.75517,0,0,0-22.43375,5.248L519.83636,566.13631l59.79814-57.46852.00582-.00815.00583-.00465L788.96926,299.3435A51.75753,51.75753,0,0,0,766.52735,294.09084Z"/><path class="02ba95b0-759e-4449-ad71-c3d30887bf94" d="M813.65,324.02888,616.66608,521.00234,813.643,717.97925a51.75513,51.75513,0,0,0,5.248-22.43374v-349.091A51.75527,51.75527,0,0,0,813.65,324.02888Z"/><path class="02ba95b0-759e-4449-ad71-c3d30887bf94" d="M228.357,324.02074a51.75513,51.75513,0,0,0-5.248,22.43375v349.091a51.767,51.767,0,0,0,5.24335,22.42792L425.33626,521Z"/><path class="02ba95b0-759e-4449-ad71-c3d30887bf94" d="M591.98418,545.68424l-59.80626,57.47552a17.44558,17.44558,0,0,1-24.68073,0l-57.479-57.47786L253.03076,742.6565a51.757,51.757,0,0,0,22.44189,5.25266h491.0547a51.75513,51.75513,0,0,0,22.43374-5.248Z"/></svg>