<svg id="ef9fe683-1493-4a63-9aab-a33cb06131e7" data-name="Layer 1" xmlns="http://www.w3.org/2000/svg" viewBox="0 0 1024 1024"><defs><style>.c241d854-31a1-47c2-bd32-f22d18045437{fill:#c1e2f5;}</style></defs><title>noti</title><circle class="c241d854-31a1-47c2-bd32-f22d18045437" cx="512.25" cy="512" r="512"/><path d="M675.909,654.54537H350.091a20.36371,20.36371,0,0,1-20.36362-20.36362V450.90913c0-101.057,82.21558-183.27263,183.27262-183.27263s183.27262,82.21558,183.27262,183.27263V634.18175A20.36371,20.36371,0,0,1,675.909,654.54537ZM370.45463,613.81812H655.54537v-162.909c0-78.59978-63.94561-142.54538-142.54537-142.54538s-142.54537,63.9456-142.54537,142.54538Z"/><path d="M675.909,735.99987H350.091a61.09088,61.09088,0,0,1,0-122.18175H675.909a61.09088,61.09088,0,0,1,0,122.18175Zm-325.818-81.4545a20.36362,20.36362,0,0,0,0,40.72725H675.909a20.36362,20.36362,0,0,0,0-40.72725Z"/><path d="M513,308.36375a20.36371,20.36371,0,0,1-20.36362-20.36363V237.09106a50.90906,50.90906,0,0,1,101.81812,0,20.36363,20.36363,0,1,1-40.72725,0,10.18182,10.18182,0,0,0-20.36363,0v50.90906A20.36371,20.36371,0,0,1,513,308.36375Z"/><path d="M513,837.818a81.44745,81.44745,0,0,1-60.6887-135.77446,20.362,20.362,0,0,1,15.16327-6.77092h91.04956a20.36644,20.36644,0,0,1,15.16327,6.77092A81.44643,81.44643,0,0,1,513,837.818ZM477.72511,735.99987a40.72725,40.72725,0,1,0,70.54978,0Z"/></svg>