<svg id="46e11e77-b992-4fcd-a2ad-94ef601ad837" data-name="Layer 1" xmlns="http://www.w3.org/2000/svg" viewBox="0 0 1024 1024"><defs><style>.\30 c7a753f-3627-4d31-9e12-824e44dea1e0{fill:#9cbfdb;}.\38 104aa04-10c6-4a27-8327-89c95615aa81{fill:#fff;}</style></defs><title>phone</title><circle class="0c7a753f-3627-4d31-9e12-824e44dea1e0" cx="513.20946" cy="512.11204" r="512"/><path class="8104aa04-10c6-4a27-8327-89c95615aa81" d="M747.18126,599.61986a317.12129,317.12129,0,0,1-99.59093-15.86322c-15.59121-5.31781-34.7577-.43928-44.27331,9.33377l-62.8027,47.40929c-72.83321-38.87842-117.69707-83.72773-156.04457-156.014l46.0144-61.16634a45.14568,45.14568,0,0,0,11.10541-45.74239,317.60623,317.60623,0,0,1-15.92431-99.75676A44.86827,44.86827,0,0,0,380.848,233H278.27376A44.87016,44.87016,0,0,0,233.455,277.81876c0,283.27178,230.4545,513.72482,513.72626,513.72482A44.87015,44.87015,0,0,0,792,746.72484V644.43718A44.87168,44.87168,0,0,0,747.18126,599.61986Z"/></svg>