<?xml version="1.0" standalone="no"?>
<!DOCTYPE svg PUBLIC "-//W3C//DTD SVG 20010904//EN"
 "http://www.w3.org/TR/2001/REC-SVG-20010904/DTD/svg10.dtd">
<svg version="1.0" xmlns="http://www.w3.org/2000/svg"
 width="812.000000pt" height="812.000000pt" viewBox="0 0 812.000000 812.000000"
 preserveAspectRatio="xMidYMid meet">

<g transform="translate(0.000000,812.000000) scale(0.100000,-0.100000)"
fill="#000000" stroke="none">
<path d="M1930 5874 c-183 -39 -339 -180 -402 -362 l-23 -67 0 -1385 0 -1385
23 -67 c64 -184 220 -323 407 -363 105 -22 4145 -22 4250 0 187 40 343 179
407 363 l23 67 0 1385 0 1385 -23 67 c-64 184 -220 323 -407 363 -103 22
-4155 21 -4255 -1z m4207 -365 c34 -13 80 -55 99 -91 12 -23 14 -159 14 -835
l0 -808 -582 582 c-321 319 -597 588 -615 597 -37 18 -109 21 -150 5 -16 -5
-369 -351 -800 -782 l-773 -772 -312 312 c-316 316 -350 343 -418 343 -68 0
-101 -27 -417 -343 l-313 -312 0 993 c0 835 2 997 14 1020 18 35 64 78 96 91
36 14 4119 15 4157 0z"/>
<path d="M3058 5150 c-218 -39 -387 -196 -443 -411 -39 -146 -2 -331 89 -453
205 -273 593 -301 831 -60 103 104 155 232 155 386 0 289 -220 522 -512 542
-40 3 -94 1 -120 -4z"/>
</g>
</svg>
