<svg id="c0bfb174-d6b0-45f7-abf6-293ba0a7a11d" data-name="Layer 1" xmlns="http://www.w3.org/2000/svg" viewBox="0 0 1024 1024"><defs><style>.\32 56f6a27-d00e-481f-8306-8ff4a16b86a8{fill:#c1e2f5;}.\31 df128a3-dc97-4bd9-afef-720b3d846be3{fill:#ffd664;}.\34 6558b34-7e3d-47e1-af07-3f5efd34f884{fill:#f9c646;}.ef923420-35ef-4e35-97da-6d257e7999ff{fill:#636363;}.\32 7753960-7e0d-4ba2-9328-252cddccdfaf{fill:#ddf5ff;}.ef4ad0ec-48c2-446a-86a8-fb90ddd1a381{fill:#ff6969;}.e50c9ba1-50a1-440d-a8f3-b642e8f8fa12{fill:#ea4747;}.\35 bf4a9da-9e4e-43c4-9c6e-41aa2654e0b6{fill:#494949;}.\38 5f6b7ae-4081-4255-83b0-72928a65b748{fill:#f9b3a7;}.\34 117fee2-c5a3-4d23-a56f-61798b70814d{fill:#feccc1;}.\37 7971dc1-b252-4813-9a1d-f59e2bee9d7a{fill:#c1e9f4;}</style></defs><title>student</title><circle class="256f6a27-d00e-481f-8306-8ff4a16b86a8" cx="511.5" cy="511.5" r="512"/><path class="1df128a3-dc97-4bd9-afef-720b3d846be3" d="M748.61014,360.43471a26.24025,26.24025,0,0,0-16.87309-24.4998V229.18a9.37738,9.37738,0,0,0-18.75475,0V335.93967a26.21653,26.21653,0,0,0,0,48.99007v29.254a9.37738,9.37738,0,0,0,18.75475,0v-29.254A26.23385,26.23385,0,0,0,748.61014,360.43471Z"/><path class="46558b34-7e3d-47e1-af07-3f5efd34f884" d="M735.41941,337.68319a26.22145,26.22145,0,0,1-35.80887,35.81363,26.23756,26.23756,0,1,0,35.80887-35.81363Z"/><path class="ef923420-35ef-4e35-97da-6d257e7999ff" d="M741.11205,219.805H281.09889a9.375,9.375,0,1,0,0,18.75h80.00187V357.93376H661.11017V238.555h80.00188a9.375,9.375,0,0,0,0-18.75Z"/><path class="27753960-7e0d-4ba2-9328-252cddccdfaf" d="M436.1055,637.94032l-106.76921,29.6589a99.99907,99.99907,0,0,0-73.23739,96.351v68.0497A12.1942,12.1942,0,0,0,268.294,844.195h485.6229A12.1942,12.1942,0,0,0,766.112,831.99988v-68.0497a99.99907,99.99907,0,0,0-73.2374-96.351l-106.7692-29.6589Z"/><path class="ef4ad0ec-48c2-446a-86a8-fb90ddd1a381" d="M534.8526,727.94123,549.85831,802.946l-38.75284,41.249-38.75284-41.249,15.00094-75.00474Z"/><path class="e50c9ba1-50a1-440d-a8f3-b642e8f8fa12" d="M549.85831,802.946l-15.00095-75.00474H511.10547l19.01676,96.008C539.98789,813.45,549.85831,802.946,549.85831,802.946Z"/><path class="ef923420-35ef-4e35-97da-6d257e7999ff" d="M766.112,763.95494v68.04494A12.1942,12.1942,0,0,1,753.91692,844.195H511.10547l73.75188-77.50092,37.46187-118.69279,70.55066,19.6027A99.98512,99.98512,0,0,1,766.112,763.95494Z"/><path class="5bf4a9da-9e4e-43c4-9c6e-41aa2654e0b6" d="M692.87464,667.59922l-8.08879-2.24847a99.96545,99.96545,0,0,1,35.07049,76.03846V844.195h34.06058A12.19725,12.19725,0,0,0,766.112,831.99988v-68.0497A99.99907,99.99907,0,0,0,692.87464,667.59922Z"/><path class="ef923420-35ef-4e35-97da-6d257e7999ff" d="M329.33629,667.59922,399.887,648.00129l37.46664,118.69279L511.10547,844.195H268.294a12.1942,12.1942,0,0,1-12.19512-12.19512v-68.0497A99.99907,99.99907,0,0,1,329.33629,667.59922Z"/><path class="85f6b7ae-4081-4255-83b0-72928a65b748" d="M556.10831,606.69033l-45.00284,44.99808-45.00284-44.99808V535.4394h90.00568Z"/><path class="1df128a3-dc97-4bd9-afef-720b3d846be3" d="M628.60733,357.93376h32.50284v50H628.60733Z"/><path class="5bf4a9da-9e4e-43c4-9c6e-41aa2654e0b6" d="M637.35828,229.18v78.75378a25.00238,25.00238,0,0,1-25,25H361.10076v25H661.11017V229.18Z"/><path class="1df128a3-dc97-4bd9-afef-720b3d846be3" d="M361.10076,357.93376h32.50285v50H361.10076Z"/><path class="4117fee2-c5a3-4d23-a56f-61798b70814d" d="M511.10547,357.93376H393.60361v41.249h-18.75a24.99932,24.99932,0,0,0-25,25v17.5019a24.99932,24.99932,0,0,0,25,25h20.2458a117.50717,117.50717,0,0,0,233.50791-18.75V357.93376Z"/><path class="85f6b7ae-4081-4255-83b0-72928a65b748" d="M647.35732,399.18279h-18.75v-41.249h-34.999v90.00091A117.533,117.533,0,0,1,493.60357,564.1408a117.62039,117.62039,0,0,0,133.508-97.45613h20.2458a24.99628,24.99628,0,0,0,25-25V424.18754A25.00033,25.00033,0,0,0,647.35732,399.18279Z"/><path class="ef4ad0ec-48c2-446a-86a8-fb90ddd1a381" d="M511.10547,727.94123H534.8526l24.37594-28.125-48.12307-48.12784-48.12784,48.12784,24.37594,28.125Z"/><path class="e50c9ba1-50a1-440d-a8f3-b642e8f8fa12" d="M511.10547,651.68841l-14.68654,14.6913,25.20483,25.20483a12.49572,12.49572,0,0,1,.60975,17.02553l-16.754,19.33116H534.8526l24.37594-28.125Z"/><path class="77971dc1-b252-4813-9a1d-f59e2bee9d7a" d="M462.97763,699.81625l48.12784-48.12784-45.00284-44.99808-30.62594,31.45959Z"/><path class="77971dc1-b252-4813-9a1d-f59e2bee9d7a" d="M559.22854,699.81625l-48.12307-48.12784,45.00284-44.99808,30.62118,31.45959Z"/><path class="5bf4a9da-9e4e-43c4-9c6e-41aa2654e0b6" d="M680.48421,805.44216V844.195h-18.75V805.44216a9.375,9.375,0,1,1,18.75,0Z"/><path class="5bf4a9da-9e4e-43c4-9c6e-41aa2654e0b6" d="M341.72672,844.195V805.44216a9.375,9.375,0,0,1,18.75,0V844.195Z"/></svg>