<svg id="f7f22a59-7a0d-4314-8877-278138784fad" data-name="Layer 1" xmlns="http://www.w3.org/2000/svg" viewBox="0 0 1024 1024"><defs><style>.ea6347c0-535e-4c34-b489-71d1f345d20f{fill:#f2dadd;}</style></defs><title>user</title><circle class="ea6347c0-535e-4c34-b489-71d1f345d20f" cx="511.75" cy="511.75" r="512"/><path d="M709.47619,574.52381a278.20092,278.20092,0,0,0-106.12465-66.565,161.39635,161.39635,0,0,0,70.10287-133.04936C673.45441,285.88367,601.02574,213.455,512,213.455S350.54559,285.88367,350.54559,374.90941a161.3946,161.3946,0,0,0,70.10393,133.04936A279.71408,279.71408,0,0,0,232.7275,772h43.63633c0-129.93044,105.70573-235.63617,235.63617-235.63617S747.63617,642.06956,747.63617,772H791.2725A277.45177,277.45177,0,0,0,709.47619,574.52381ZM512,492.7275A117.81809,117.81809,0,1,1,629.81809,374.90941,117.95139,117.95139,0,0,1,512,492.7275Z"/></svg>