<svg id="18d73869-e885-42a3-a8f4-6672f8e6f5d1" data-name="Layer 1" xmlns="http://www.w3.org/2000/svg" viewBox="0 0 1000 1000"><title>logo (no words)</title><path d="M306.54653,485.72459c8.42523,0,16.03416,3.20339,19.82939,8.32241l33.10277,45.08453L203.06,749.26287,135.75,709.13336l151.00738-215.1398c3.84445-5.10355,11.41312-8.269,19.78914-8.269m0-10.07983c-10.90389,0-21.8076,4.14555-27.9544,12.43667l-157.331,224.14915L205.713,762.57985,372.014,539.17266l-37.51323-51.09123c-6.14662-8.29112-17.05051-12.43667-27.95422-12.43667Z"/><path d="M685.44064,485.72459c8.37549,0,15.94433,3.16577,19.789,8.2688l151.00756,215.14-67.31,40.12951L632.50848,539.13153l33.07534-45.04709c3.82283-5.15646,11.43158-8.35985,19.85682-8.35985m0-10.07983c-10.90372,0-21.8076,4.14555-27.95422,12.43667l-37.51323,51.09123,166.301,223.40719,84.45187-50.34927L713.395,488.08143c-6.14679-8.29112-17.05051-12.43667-27.95439-12.43667Z"/><path d="M495.79012,389.88861c8.42523,0,16.034,3.20339,19.85558,8.35791l264.979,357.5982L494.2234,916.81119,211.9322,754.351,475.933,398.24863c3.823-5.15663,11.43192-8.36,19.85716-8.36m0-10.07984c-10.90371,0-21.8076,4.14556-27.9544,12.43668l-270.742,365.19569,297.07065,170.966,301.366-169.37728-271.786-366.78438c-6.14662-8.29112-17.05051-12.43668-27.95422-12.43668Z"/><path d="M493.9578,926.98682,325.48331,829.5001l10.62968-3.53525c59.437-19.76453,115.51455-61.76432,142.86287-106.99844,9.40063-15.54866,29.4-56.46,12.12308-100.43277-3.06-7.7905-7.18723-16.39943-11.55637-25.51459-12.92183-26.95879-27.56769-57.51471-27.56769-90.70449,0-54.22413,28.15549-110.79525,35.19928-116.37376h0c.50343-.398.5639-.51327.66374-.70452,1.95185-3.73353,5.279-3.73353,7.95222-3.73353,1.41326,0,2.79277.04781,4.102.142a9.00269,9.00269,0,0,1,8.45143,7.26879,25.684,25.684,0,0,1,.2714,7.85378c-.04359.59764-.08578,1.16857-.10687,1.6931-1.02233,25.7888,9.60453,86.10471,19.60562,111.27337,10.75483,27.06707,38.91313,54.47725,57.54564,72.61337,4.777,4.649,8.90142,8.66517,12.06122,12.0134C640.775,639.98,656.05083,692.37183,656.05083,723.37493c0,79.14389-50.06591,146.03813-52.19776,148.84637l-.71858.9492ZM349.67043,831.84991l144.66706,83.71272L596.50413,865.2c6.0074-8.322,49.46686-71.0187,49.46686-141.82507,0-29.15532-14.55586-78.6264-55.58114-122.0957-3.01354-3.19354-7.06629-7.13942-11.76168-11.70825-19.24563-18.73517-48.332-47.04815-59.88279-76.11628-10.57343-26.61-21.39294-88.08047-20.30874-115.39222.0239-.62577.07312-1.30919.12515-2.02356a26.19753,26.19753,0,0,0,.07031-4.372c-.96889-.05906-1.949-.10265-2.92495-.08437a12.75965,12.75965,0,0,1-2.1684,2.17543c-3.967,4.161-31.484,55.47567-31.484,108.55654,0,30.899,14.11993,60.35669,26.5777,86.34659,4.45071,9.28532,8.65392,18.056,11.84887,26.18536,18.92079,48.16048-2.70417,92.50446-12.87963,109.33419C460.6949,768.68639,407.33841,810.11526,349.67043,831.84991Z"/><rect x="489.10773" y="265.26961" width="10.07984" height="126.31298"/><polygon points="553.92 298.718 494.148 327.126 494.148 270.31 553.92 298.718"/><path d="M494.14764,332.16526a5.03833,5.03833,0,0,1-5.03991-5.03992V270.30953a5.03892,5.03892,0,0,1,7.20269-4.552l59.77311,28.40861a5.03942,5.03942,0,0,1,0,9.10391L496.31042,331.6773A5.03615,5.03615,0,0,1,494.14764,332.16526Zm5.03992-53.87961v40.865l42.9926-20.43248Z"/><path d="M497.59536,82.52209,858.12344,290.67293v416.3024L497.59519,915.12688,137.06588,706.97533V290.67311l360.52948-208.151M497.59519,44.279,103.94641,271.5514V726.09686L497.59519,953.36994,891.24291,726.09686V271.5514L497.59519,44.279Z"/><rect x="483.36311" y="845.61818" width="47.75302" height="10.07864" transform="translate(-481.31834 790.13164) rotate(-55.6891)"/><rect x="527.44464" y="767.21751" width="39.60993" height="10.07858" transform="translate(-360.01907 1041.93486) rotate(-71.23135)"/><rect x="549.43378" y="689.14993" width="34.83166" height="10.07889" transform="translate(-138.12523 1247.56796) rotate(-88.89676)"/><rect x="548.02477" y="610.26521" width="10.07918" height="29.54024" transform="translate(-247.97525 390.76006) rotate(-32.1936)"/><rect x="509.52343" y="551.2341" width="10.08106" height="29.34576" transform="translate(-197.90209 287.66443) rotate(-26.38824)"/><rect x="486.23231" y="498.73164" width="10.07919" height="25.72524" transform="translate(-57.76083 62.55103) rotate(-6.88183)"/><rect x="482.68127" y="443.76628" width="10.07984" height="23.8004"/></svg>