<svg id="b71df32d-b7eb-4af5-b088-da9b258b4b70" data-name="Layer 1" xmlns="http://www.w3.org/2000/svg" viewBox="0 0 1024 1024"><defs><style>.d1828db2-ab04-4683-ad13-df179ca85416{fill:#d6ead6;}</style></defs><title>settings</title><circle class="d1828db2-ab04-4683-ad13-df179ca85416" cx="512.5" cy="512" r="512"/><path d="M515,837.818a71.35343,71.35343,0,0,1-71.27269-71.27269v-20.7429a242.02277,242.02277,0,0,1-43.64433-18.088L385.40335,742.394A71.27362,71.27362,0,1,1,284.60723,641.59792l14.67963-14.67962a242.15383,242.15383,0,0,1-18.088-43.64433H260.4547a71.27333,71.27333,0,0,1,0-142.54666h20.74416a242.02417,242.02417,0,0,1,18.088-43.64433l-14.67963-14.67963A71.27408,71.27408,0,1,1,385.40335,281.606L400.083,296.28558a242.1158,242.1158,0,0,1,43.64433-18.088v-20.7429A71.29,71.29,0,0,1,515,186.182a72.27217,72.27217,0,0,1,14.18961,1.41655,71.49464,71.49464,0,0,1,57.08308,69.85615v20.7429a242.024,242.024,0,0,1,43.64433,18.088L644.59664,281.606A71.27362,71.27362,0,1,1,745.39276,382.40207L730.71314,397.0817a242.15281,242.15281,0,0,1,18.088,43.64433h20.74419a71.27333,71.27333,0,0,1,0,142.54666H748.80113a242.02261,242.02261,0,0,1-18.088,43.64433l14.67962,14.67962a71.275,71.275,0,0,1-100.7974,100.79868L629.91574,727.7157a242.11584,242.11584,0,0,1-43.64433,18.088v20.74162a71.32431,71.32431,0,0,1-57.03725,69.8472c-.01526.00257-.02929.00637-.04455.0089A72.27168,72.27168,0,0,1,515,837.818Zm10.18181-21.38179h0ZM396.73187,681.909a20.30677,20.30677,0,0,1,10.75837,3.07873,201.84434,201.84434,0,0,0,61.20287,25.36035,20.36373,20.36373,0,0,1,15.76145,19.83671v36.36053A30.58109,30.58109,0,0,0,515,797.09076a31.42841,31.42841,0,0,0,6.13583-.61217,30.59728,30.59728,0,0,0,24.40961-29.93327V730.18351a20.36373,20.36373,0,0,1,15.76145-19.83671,201.8448,201.8448,0,0,0,61.20289-25.36035,20.3622,20.3622,0,0,1,25.16307,2.88655l25.7218,25.7218a30.54712,30.54712,0,0,0,43.20015-43.20015l-25.72052-25.72052a20.36437,20.36437,0,0,1-2.88783-25.16307,201.83885,201.83885,0,0,0,25.36035-61.20289,20.36372,20.36372,0,0,1,19.83671-15.76145h36.36181a30.54608,30.54608,0,0,0,0-61.09216H733.18351a20.36372,20.36372,0,0,1-19.83671-15.76145,201.80648,201.80648,0,0,0-25.36035-61.20287,20.36218,20.36218,0,0,1,2.88783-25.16308l25.7218-25.72053a30.54712,30.54712,0,0,0-43.20143-43.19888l-25.7218,25.72054a20.36069,20.36069,0,0,1-25.16307,2.88654,201.84432,201.84432,0,0,0-61.20289-25.36036,20.36621,20.36621,0,0,1-15.76145-19.838v-36.3618a30.62266,30.62266,0,0,0-24.41854-29.93581A31.3769,31.3769,0,0,0,515,226.90925a30.56312,30.56312,0,0,0-30.54544,30.54544v36.3618a20.36371,20.36371,0,0,1-15.76145,19.83671,201.84383,201.84383,0,0,0-61.20287,25.36035,20.36089,20.36089,0,0,1-25.16308-2.88654l-25.72181-25.7218a30.54712,30.54712,0,0,0-43.20015,43.20016l25.72053,25.72053a20.3643,20.3643,0,0,1,2.88781,25.16307,201.8387,201.8387,0,0,0-25.36035,61.20288,20.36137,20.36137,0,0,1-19.83671,15.76271h-36.3618a30.54544,30.54544,0,0,0,0,61.09088h36.3618a20.36371,20.36371,0,0,1,19.83671,15.76145,201.80675,201.80675,0,0,0,25.36035,61.20289,20.36221,20.36221,0,0,1-2.88781,25.16307l-25.7218,25.72055a30.54712,30.54712,0,0,0,43.20142,43.19887l25.72179-25.72055a20.34853,20.34853,0,0,1,14.40471-5.96272Z"/><path d="M515,654.54538c-78.59978,0-142.54538-63.94562-142.54538-142.54538S436.40022,369.45462,515,369.45462c4.04854,0,8.0678.17181,11.94964.50908a142.537,142.537,0,0,1-.09928,284.08149C523.06784,654.37355,519.04854,654.54538,515,654.54538Zm0-244.36351a101.81813,101.81813,0,0,0,0,203.63626c2.87381,0,5.70435-.11963,8.414-.35508,52.41981-4.30944,93.40415-48.8727,93.40415-101.463s-40.98434-97.15358-93.30487-101.45412c-2.80891-.24436-5.63945-.364-8.51326-.364Z"/></svg>