<svg id="a59e0e17-d928-4a65-8b60-21bbbbb2642d" data-name="Layer 1" xmlns="http://www.w3.org/2000/svg" viewBox="0 0 1024 1024"><defs><style>.e32612af-63d8-494b-a0fd-d3061b55ab87{fill:#79a4bc;}.f7f59585-8c8a-4412-9423-58c303d5bfcc{fill:#fff;}</style></defs><title>web</title><circle class="e32612af-63d8-494b-a0fd-d3061b55ab87" cx="511.59742" cy="514.16882" r="512"/><path class="f7f59585-8c8a-4412-9423-58c303d5bfcc" d="M699.43089,323.56806c-109.111-109.11314-285.73337-109.13058-394.86181,0-109.11423,109.11313-109.13058,285.73337,0,394.86287,109.111,109.11317,285.73337,109.12947,394.86181,0C808.54512,609.3178,808.56036,432.69756,699.43089,323.56806ZM687.76114,678.63a279.87039,279.87039,0,0,0-41.70851-30.8857c9.72189-33.5824,15.48155-70.53735,16.843-108.95183h82.08828A241.41646,241.41646,0,0,1,687.76111,678.63ZM259.015,538.79245h82.08828c1.36144,38.41448,7.1211,75.3694,16.843,108.95183A279.87194,279.87194,0,0,0,316.23775,678.63,241.42367,241.42367,0,0,1,259.015,538.79245Zm57.22385-175.4234a279.87238,279.87238,0,0,0,41.70851,30.88569c-9.72188,33.58242-15.48155,70.53736-16.843,108.95184H259.015A241.42341,241.42341,0,0,1,316.23884,363.36905ZM484.2076,397.93248a241.733,241.733,0,0,1-82.93742-21.0134c15.08587-38.84721,42.89664-85.4401,82.93742-96.98668Zm0,35.65235v69.62283H376.70441a419.22364,419.22364,0,0,1,13.49335-92.25055A277.34009,277.34009,0,0,0,484.2076,433.58483Zm0,105.20759v69.62281A277.34079,277.34079,0,0,0,390.19776,631.043a419.22355,419.22355,0,0,1-13.49335-92.25053Zm0,105.27518v117.999c-40.0386-11.54657-67.84937-58.134-82.93742-96.98557A241.73351,241.73351,0,0,1,484.2076,644.0676Zm35.58477,0A241.7318,241.7318,0,0,1,602.7298,665.081c-15.087,38.84832-42.89664,85.439-82.93743,96.9856Zm0-35.65237V538.79242H627.29556A419.22382,419.22382,0,0,1,613.80221,631.043a277.341,277.341,0,0,0-94.00984-22.62772Zm0-105.20761V433.5848a277.34044,277.34044,0,0,0,94.00984-22.62772,419.22337,419.22337,0,0,1,13.49335,92.25054Zm0-105.27519v-117.999c40.04079,11.54658,67.85153,58.13947,82.93743,96.98668A241.7563,241.7563,0,0,1,519.79237,397.93243Zm79.92025-100.23494a242.55478,242.55478,0,0,1,63.07291,40.27732A244.55307,244.55307,0,0,1,634.1616,359.7C625.28993,337.73392,613.957,316.387,599.71262,297.69749ZM369.83728,359.7a244.64667,244.64667,0,0,1-28.62392-21.72518,242.55464,242.55464,0,0,1,63.07289-40.27731c-14.24437,18.69165-25.57731,40.03859-34.449,62.00249Zm.0011,322.60006c8.87058,21.965,20.2057,43.313,34.449,62.00248a242.55468,242.55468,0,0,1-63.0729-40.2773A244.55206,244.55206,0,0,1,369.83838,682.30005Zm264.32322,0a244.6648,244.6648,0,0,1,28.62393,21.72408,242.55369,242.55369,0,0,1-63.07291,40.2773c14.24327-18.68731,25.57731-40.03533,34.449-62.00142Zm28.7351-179.09241c-1.36142-38.41448-7.12108-75.37049-16.843-108.95183a279.92951,279.92951,0,0,0,41.70852-30.88571A241.42363,241.42363,0,0,1,744.985,503.20764Z"/></svg>