<svg height="512pt" viewBox="0 -80 512 512" width="512pt" xmlns="http://www.w3.org/2000/svg"><path d="m32 0h448c17.671875 0 32 14.328125 32 32v288c0 17.671875-14.328125 32-32 32h-448c-17.671875 0-32-14.328125-32-32v-288c0-17.671875 14.328125-32 32-32zm0 0" fill="#82b1ff"/><path d="m184 96c0 30.929688-25.070312 56-56 56s-56-25.070312-56-56 25.070312-56 56-56 56 25.070312 56 56zm0 0" fill="#e4edfb"/><path d="m224 288h-192v-48c0-26.507812 21.492188-48 48-48h96c26.507812 0 48 21.492188 48 48zm0 0" fill="#e4edfb"/><g fill="#448aff"><path d="m272 64h192c8.835938 0 16 7.164062 16 16s-7.164062 16-16 16h-192c-8.835938 0-16-7.164062-16-16s7.164062-16 16-16zm0 0"/><path d="m272 128h32c8.835938 0 16 7.164062 16 16s-7.164062 16-16 16h-32c-8.835938 0-16-7.164062-16-16s7.164062-16 16-16zm0 0"/><path d="m368 128h96c8.835938 0 16 7.164062 16 16s-7.164062 16-16 16h-96c-8.835938 0-16-7.164062-16-16s7.164062-16 16-16zm0 0"/><path d="m272 192h32c8.835938 0 16 7.164062 16 16s-7.164062 16-16 16h-32c-8.835938 0-16-7.164062-16-16s7.164062-16 16-16zm0 0"/><path d="m368 192h96c8.835938 0 16 7.164062 16 16s-7.164062 16-16 16h-96c-8.835938 0-16-7.164062-16-16s7.164062-16 16-16zm0 0"/></g><path d="m384 256h32v32h-32zm0 0" fill="#fff"/><path d="m320 256h32v32h-32zm0 0" fill="#fff"/><path d="m256 256h32v32h-32zm0 0" fill="#fff"/></svg>