<svg id="d0009c7f-06b6-4e22-a52b-50b7c6190409" data-name="Layer 1" xmlns="http://www.w3.org/2000/svg" viewBox="0 0 1000 1000"><defs><style>.\37 a4e5f18-809b-494b-ae2b-f9ec2a927e7f,.c9ed9735-e780-46af-9c6d-f1f58d2b9597{fill:none;}.\37 a4e5f18-809b-494b-ae2b-f9ec2a927e7f,.b4b044eb-573a-4318-9c02-7b20ec6b0e9c,.c9ed9735-e780-46af-9c6d-f1f58d2b9597{stroke:#000;stroke-width:7px;}.\37 a4e5f18-809b-494b-ae2b-f9ec2a927e7f{stroke-miterlimit:10;}.c9ed9735-e780-46af-9c6d-f1f58d2b9597{stroke-linecap:square;}.b4b044eb-573a-4318-9c02-7b20ec6b0e9c,.c9ed9735-e780-46af-9c6d-f1f58d2b9597{stroke-linejoin:round;}.b4b044eb-573a-4318-9c02-7b20ec6b0e9c{stroke-linecap:round;}</style></defs><title>logo (no tagline)</title><path d="M219.72238,770.00889h15.67188v70.22168H219.72238l-33.45312-44.001v44.001h-15.6709V770.00889h14.667l34.457,45.207Z"/><path d="M278.79172,822.09776a12.82852,12.82852,0,0,0,10.54785,4.87207,12.68831,12.68831,0,0,0,10.49805-4.87207q3.86718-4.87208,3.86816-13.31152V770.00889h15.6709v39.28028q0,15.271-8.4375,23.457-8.439,8.18994-21.59961,8.1875-13.16016,0-21.64844-8.23731-8.49022-8.23681-8.48925-23.40722V770.00889h15.67187v38.77735Q274.87375,817.2252,278.79172,822.09776Z"/><path d="M359.61106,784.02354a6.05508,6.05508,0,0,0-2.26075,4.92285,5.56259,5.56259,0,0,0,2.7627,4.87207q2.7627,1.80762,12.75781,4.26954,9.99609,2.4624,15.52149,7.38378,5.52392,4.92335,5.52539,14.36524a18.964,18.964,0,0,1-7.082,15.32031q-7.08252,5.877-18.63575,5.87695-16.67724,0-30.03711-12.35644l9.34278-11.45215q11.35107,9.94482,20.99609,9.94531a11.01957,11.01957,0,0,0,6.78125-1.85839,5.96842,5.96842,0,0,0,2.46094-5.02344,5.85524,5.85524,0,0,0-2.61133-5.02246q-2.61474-1.85889-10.34766-3.76758-12.25781-2.91211-17.93261-7.585-5.67627-4.67139-5.67578-14.667,0-9.99464,7.18261-15.4209,7.18066-5.42431,17.93164-5.42481a43.12975,43.12975,0,0,1,14.06446,2.41114,37.68157,37.68157,0,0,1,12.25586,6.832l-7.93555,11.45214q-9.14355-6.93164-18.88672-6.93164A9.44847,9.44847,0,0,0,359.61106,784.02354Z"/><path d="M440.22922,814.714l17.88184-44.70508H475.0886l-28.2295,70.22168H433.59934l-28.22949-70.22168h16.97753Z"/><path d="M538.88059,813.20714a26.72757,26.72757,0,0,1-8.13672,19.79q-8.13867,8.03906-20.44434,8.0371-12.30615,0-20.44336-8.0371a28.19429,28.19429,0,0,1,0-39.63086q8.13721-8.08594,20.44336-8.08692,12.30615,0,20.44434,8.08692A26.895,26.895,0,0,1,538.88059,813.20714Zm-41.99219,0A15.48686,15.48686,0,0,0,500.656,824.006a13.236,13.236,0,0,0,19.28711,0,15.48686,15.48686,0,0,0,3.76758-10.79882,15.67481,15.67481,0,0,0-3.76758-10.84961,13.12931,13.12931,0,0,0-19.28711,0A15.67481,15.67481,0,0,0,496.8884,813.20714Z"/><path d="M583.48215,827.673q7.53516,0,13.5625-7.53418l8.94141,10.0459q-10.4502,10.85008-22.60352,10.8496a29.28817,29.28817,0,0,1-20.543-7.68554q-8.39062-7.68458-8.38867-20.0918,0-12.40576,8.48828-20.19238a28.79974,28.79974,0,0,1,20.14258-7.78516,31.387,31.387,0,0,1,11.80273,2.41113,29.86453,29.86453,0,0,1,10.498,7.13184l-7.83594,10.24707a17.83688,17.83688,0,0,0-6.3789-4.82226,18.02092,18.02092,0,0,0-7.48438-1.707,14.6706,14.6706,0,0,0-10.19531,3.86719q-4.27149,3.86865-4.26953,10.749,0,6.88329,4.26953,10.69921A14.51317,14.51317,0,0,0,583.48215,827.673Z"/><path d="M669.47629,840.23057h-14.166V833.7003q-5.82716,7.33448-14.416,7.334a21.435,21.435,0,0,1-14.416-4.97265,16.55588,16.55588,0,0,1-5.82617-13.26074q0-8.28809,6.02735-12.40723,6.02929-4.11768,16.47656-4.11816h11.25v-.30176q0-8.63818-9.14063-8.63965a24.715,24.715,0,0,0-8.28906,1.55762,26.91009,26.91009,0,0,0-7.38281,3.86718l-6.73047-9.74414a40.30866,40.30866,0,0,1,24.31055-7.73535q9.84375,0,16.07422,4.92188,6.22559,4.92333,6.22851,15.57129Zm-15.16992-20.59375v-2.6123H644.863q-9.041,0-9.041,5.626a5.16856,5.16856,0,0,0,2.16016,4.46972,10.44563,10.44563,0,0,0,6.17773,1.55762,10.9816,10.9816,0,0,0,7.082-2.46094A8.00782,8.00782,0,0,0,654.30637,819.63682Z"/><path d="M708.15207,797.03331v24.21a6.94738,6.94738,0,0,0,1.60742,4.873,5.004,5.004,0,0,0,3.81836,1.75781,8.69785,8.69785,0,0,0,7.13086-3.81738l5.627,10.54785q-7.03419,6.43066-14.81836,6.42968a18.3542,18.3542,0,0,1-13.16016-5.123q-5.376-5.124-5.375-13.96387V797.03331H686.654V786.1837h6.32812V770.00889h15.16992V786.1837h13.06055v10.84961Z"/><path d="M743.16184,779.30186a8.97486,8.97486,0,1,1,6.27734,2.56153A8.53254,8.53254,0,0,1,743.16184,779.30186Zm13.8125,60.92871H741.906V786.1837h15.06836Z"/><path d="M832.82,813.20714a26.72757,26.72757,0,0,1-8.13672,19.79q-8.13867,8.03906-20.44336,8.0371-12.30762,0-20.44531-8.0371a28.19668,28.19668,0,0,1,0-39.63086q8.13867-8.08594,20.44531-8.08692,12.30469,0,20.44336,8.08692A26.895,26.895,0,0,1,832.82,813.20714Zm-41.99219,0a15.48686,15.48686,0,0,0,3.76758,10.79882,13.236,13.236,0,0,0,19.28711,0,15.48686,15.48686,0,0,0,3.76758-10.79882,15.67481,15.67481,0,0,0-3.76758-10.84961,13.12931,13.12931,0,0,0-19.28711,0A15.67481,15.67481,0,0,0,790.82785,813.20714Z"/><path d="M370.0103,403.11569c5.85108,0,11.135,2.2246,13.77075,5.77966l22.98853,31.3092L298.1436,586.13131,251.4,558.26327,356.26763,408.85812c2.67016-3.54395,7.92627-5.74243,13.74267-5.74243m0-7c-7.57226,0-15.14428,2.8789-19.41308,8.63684L241.33794,560.41415l58.64795,34.96521L415.47466,440.23312l-26.05127-35.48059c-4.26856-5.75794-11.84082-8.63684-19.41309-8.63684Z"/><path d="M633.13555,403.11569c5.81616,0,11.07226,2.19836,13.74218,5.74218L751.7459,558.26327l-46.7439,27.868L596.37627,440.20455l22.96948-31.2832c2.65479-3.58106,7.93872-5.80566,13.7898-5.80566m0-7c-7.57227,0-15.14453,2.8789-19.41309,8.63684l-26.05127,35.48059L703.15972,595.37936l58.64819-34.96521L652.54839,404.75253c-4.26856-5.75794-11.84082-8.63684-19.41284-8.63684Z"/><path d="M501.43145,336.562c5.85107,0,11.135,2.22461,13.78881,5.8042L699.23662,590.70223,500.34355,702.48629,304.305,589.66476,487.64189,342.36752c2.65479-3.58094,7.93873-5.80555,13.78956-5.80555m.00024-7c-7.57227,0-15.14453,2.87891-19.41309,8.63672L294.00029,591.81075l206.30225,118.7284,209.2854-117.625L520.84453,338.19869c-4.26855-5.75781-11.84082-8.63672-19.41284-8.63672Z"/><path class="7a4e5f18-809b-494b-ae2b-f9ec2a927e7f" d="M497.62105,336.56468c-3.30247,2.61533-23.11723,40.48913-23.11723,78.07235,0,30.15559,18.64077,58.33615,26.92776,79.42844,12.11466,30.83463-.5673,59.41582-8.68185,72.83724-18.95116,31.34508-58.43619,61.6284-101.10257,75.81584l108.644,62.8677,73.39713-36.18048s35.53754-46.8366,35.53755-101.25223c0-23.48708-12.20863-58.21747-39.5533-87.19238-10.74958-11.39045-39.37187-35.53283-49.0465-59.87989-6.913-17.39729-14.62354-59.453-13.85971-78.70475.11584-2.91979,1.07546-7.77422-2.73808-8.04856-.78391-.05639-1.64775-.08921-2.59666-.08921C498.06561,334.23875,500.004,334.67754,497.62105,336.56468Z"/><line class="c9ed9735-e780-46af-9c6d-f1f58d2b9597" x1="500.29117" y1="334.23876" x2="500.29117" y2="253.51958"/><polygon class="b4b044eb-573a-4318-9c02-7b20ec6b0e9c" points="541.801 273.248 500.291 292.976 500.291 253.52 541.801 273.248"/><path d="M502.68535,123.10958,753.056,267.6611V556.76461l-250.37085,144.552-250.37158-144.552V267.66122L502.68535,123.10958m-.00024-26.5581L229.31353,254.382V570.04366L502.68511,727.87472,776.056,570.04366V254.382L502.68511,96.55148Z"/><line class="7a4e5f18-809b-494b-ae2b-f9ec2a927e7f" x1="500.03632" y1="670.24098" x2="518.72914" y2="642.84954"/><line class="7a4e5f18-809b-494b-ae2b-f9ec2a927e7f" x1="532.74267" y1="615.12247" x2="541.59237" y2="589.07738"/><line class="7a4e5f18-809b-494b-ae2b-f9ec2a927e7f" x1="550.54654" y1="559.9776" x2="551.01163" y2="535.79288"/><line class="7a4e5f18-809b-494b-ae2b-f9ec2a927e7f" x1="546.67112" y1="508.54079" x2="535.74148" y2="491.18101"/><line class="7a4e5f18-809b-494b-ae2b-f9ec2a927e7f" x1="518.99821" y1="467.92647" x2="509.94014" y2="449.67055"/><line class="7a4e5f18-809b-494b-ae2b-f9ec2a927e7f" x1="499.36429" y1="429.94943" x2="497.22311" y2="412.2131"/><line class="7a4e5f18-809b-494b-ae2b-f9ec2a927e7f" x1="495.82784" y1="390.50551" x2="495.82784" y2="373.9774"/></svg>