<svg id="900dc164-2e4b-4761-9531-0a2130901079" data-name="Layer 1" xmlns="http://www.w3.org/2000/svg" viewBox="0 0 1024 1024"><defs><style>.\31 9b9a040-f909-42bc-8b03-e4be462984c6{fill:#d6ead6;}.c0640198-b701-4f49-88be-094a031df5e6{fill:#636363;}.\39 763ad0e-9d2f-46d6-bdad-65e799368386{fill:#494949;}.\37 6d696a2-5cff-4192-9afe-d72e35804115{fill:#c9d2e3;}.bf046735-fdba-4d9c-a2d8-d3790b53841e{fill:#adbbd5;}.\33 6c3db47-00a7-4ea6-8baa-80b7012b20bd{fill:#ffd664;}.d622a549-4b34-4ffb-95bd-0e50754d2287{fill:#f9c646;}</style></defs><title>employer</title><circle class="19b9a040-f909-42bc-8b03-e4be462984c6" cx="512.5" cy="511.75" r="512"/><path class="c0640198-b701-4f49-88be-094a031df5e6" d="M748.05174,816.23972H275.94826a50.76307,50.76307,0,0,1-50.76217-50.76218V424.09525H798.81391V765.47754A50.76307,50.76307,0,0,1,748.05174,816.23972Z"/><path class="9763ad0e-9d2f-46d6-bdad-65e799368386" d="M770.89376,424.09525H225.18609V570.74153a74.89919,74.89919,0,0,0,10.73265,2.94874l233.14111,43.20216h85.88506L770.89376,576.8772V765.47754a50.76307,50.76307,0,0,1-50.76217,50.76218h27.92015a50.76307,50.76307,0,0,0,50.76217-50.76218V424.09525Z"/><path class="76d696a2-5cff-4192-9afe-d72e35804115" d="M552.61069,591.51134v55.83553H471.38931V591.51134Z"/><path class="bf046735-fdba-4d9c-a2d8-d3790b53841e" d="M471.38931,591.51134h81.22138v25.38109H471.38931Z"/><path class="c0640198-b701-4f49-88be-094a031df5e6" d="M512,591.51134h40.61069l230.58776-42.72579A50.76691,50.76691,0,0,0,824.195,498.97136V415.21091A50.76714,50.76714,0,0,0,773.43282,364.444H250.56718A50.76714,50.76714,0,0,0,199.805,415.21091v83.76045a50.76691,50.76691,0,0,0,40.99655,49.81419l230.58776,42.72579Z"/><path class="9763ad0e-9d2f-46d6-bdad-65e799368386" d="M773.43282,364.444H742.97361a50.76714,50.76714,0,0,1,50.76218,50.76694v96.551a50.70729,50.70729,0,0,1-17.4495,38.30029l6.91216-1.27668A50.76691,50.76691,0,0,0,824.195,498.97136V415.21091A50.76714,50.76714,0,0,0,773.43282,364.444Z"/><path class="36c3db47-00a7-4ea6-8baa-80b7012b20bd" d="M515.78716,710.8901l27.91538-8.72713a12.68371,12.68371,0,0,0,8.90815-12.11413v-42.702H471.38931v42.702a12.68371,12.68371,0,0,0,8.90815,12.11413l27.91538,8.72713A12.67938,12.67938,0,0,0,515.78716,710.8901Z"/><path class="d622a549-4b34-4ffb-95bd-0e50754d2287" d="M532.303,647.34687v58.37936l11.39958-3.56326a12.68371,12.68371,0,0,0,8.90815-12.11413v-42.702Z"/><path class="36c3db47-00a7-4ea6-8baa-80b7012b20bd" d="M435.85674,364.444h-76.148V339.06289a12.6923,12.6923,0,0,1,12.69054-12.69055h50.76694a12.6923,12.6923,0,0,1,12.69055,12.69055Z"/><path class="d622a549-4b34-4ffb-95bd-0e50754d2287" d="M419.35522,326.37234v10.15625a12.68822,12.68822,0,0,1-12.68578,12.69054H359.70871v15.22961h76.148V339.06765a12.69332,12.69332,0,0,0-12.69055-12.69531Z"/><path class="36c3db47-00a7-4ea6-8baa-80b7012b20bd" d="M664.29129,364.444h-76.148V339.06289a12.6923,12.6923,0,0,1,12.69055-12.69055h50.76694a12.6923,12.6923,0,0,1,12.69054,12.69055Z"/><path class="d622a549-4b34-4ffb-95bd-0e50754d2287" d="M647.79454,326.37234v10.15625A12.69229,12.69229,0,0,1,635.104,349.21913H588.148v15.22961h76.14326V339.06765a12.69331,12.69331,0,0,0-12.69054-12.69531Z"/><path class="76d696a2-5cff-4192-9afe-d72e35804115" d="M646.52262,326.37234H605.91193v-22.842a30.49471,30.49471,0,0,0-30.45921-30.45922H448.54728a30.49165,30.49165,0,0,0-30.45921,30.45922v22.842H377.47738v-22.842a71.14855,71.14855,0,0,1,71.06514-71.06991h126.9102a71.15262,71.15262,0,0,1,71.0699,71.06991Z"/><path class="bf046735-fdba-4d9c-a2d8-d3790b53841e" d="M400.3194,303.53032v22.842h17.76867v-22.842a30.49471,30.49471,0,0,1,30.45921-30.45922H430.77861A30.49472,30.49472,0,0,0,400.3194,303.53032Z"/><path class="bf046735-fdba-4d9c-a2d8-d3790b53841e" d="M575.45272,232.46041h-17.7639A71.1455,71.1455,0,0,1,628.754,303.53032v22.842h17.76866v-22.842A71.14957,71.14957,0,0,0,575.45272,232.46041Z"/></svg>