<svg id="77999ad0-bbc2-4124-9c98-466a4a9021a9" data-name="Layer 1" xmlns="http://www.w3.org/2000/svg" viewBox="0 0 1000 393.22568"><title>logo alt ver2</title><path d="M364.30035,169.4178h14.8621v66.59311h-14.8621L332.5752,194.28342v41.72749H317.71309V169.4178H331.623l32.67731,42.87055Z"/><path d="M420.31723,218.81438a12.16555,12.16555,0,0,0,10.00352,4.62054,12.03509,12.03509,0,0,0,9.95639-4.62054q3.666-4.61879,3.66721-12.62313V169.4178h14.8621v37.24953q0,14.48384-8.00258,22.246-8.002,7.76512-20.48312,7.76454-12.48112,0-20.53025-7.81168-8.05149-7.81109-8.04972-22.19888V169.4178h14.86093v36.77345Q416.60171,214.195,420.31723,218.81438Z"/><path d="M496.961,182.7079a5.74333,5.74333,0,0,0-2.14352,4.66768,5.2731,5.2731,0,0,0,2.6196,4.62055q2.6196,1.71459,12.09991,4.049,9.478,2.33679,14.71834,7.00212,5.23922,4.67,5.24039,13.62359a17.98071,17.98071,0,0,1-6.71694,14.52862q-6.71692,5.57328-17.67261,5.57387-15.81484,0-28.4857-11.7181l8.86047-10.86141q10.76477,9.432,19.91159,9.432a10.44739,10.44739,0,0,0,6.43058-1.76291,5.65629,5.65629,0,0,0,2.33443-4.76313,5.55244,5.55244,0,0,0-2.477-4.76313q-2.4782-1.7623-9.81262-3.57294-11.6256-2.761-17.00563-7.193-5.38416-4.42965-5.383-13.90877,0-9.47971,6.8112-14.62407,6.81063-5.14553,17.00564-5.14493a40.904,40.904,0,0,1,13.33842,2.28729,35.72992,35.72992,0,0,1,11.62265,6.47772l-7.5265,10.86022q-8.67015-6.572-17.91065-6.57317A8.95843,8.95843,0,0,0,496.961,182.7079Z"/><path d="M573.41387,211.81227l16.9585-42.39447H606.4718l-26.76993,66.59311h-12.576L540.35477,169.4178h16.10061Z"/><path d="M666.969,210.38286a25.34737,25.34737,0,0,1-7.71622,18.76853q-7.71741,7.62372-19.38838,7.62195-11.66979,0-19.3872-7.62195a26.74125,26.74125,0,0,1,0-37.5842q7.71741-7.66616,19.3872-7.66909,11.66979,0,19.38838,7.66909A25.50852,25.50852,0,0,1,666.969,210.38286Zm-39.822,0a14.68573,14.68573,0,0,0,3.57176,10.24156,12.55373,12.55373,0,0,0,18.29246,0,14.68573,14.68573,0,0,0,3.57176-10.24156,14.868,14.868,0,0,0-3.57176-10.2887,12.45521,12.45521,0,0,0-18.29246,0A14.868,14.868,0,0,0,627.147,210.38286Z"/><path d="M709.26684,224.1019q7.14648,0,12.86117-7.1447l8.47984,9.52627q-9.90926,10.28928-21.43646,10.28987a27.78247,27.78247,0,0,1-19.48265-7.28846q-7.95426-7.28787-7.95426-19.05371,0-11.76524,8.04972-19.14916a27.31446,27.31446,0,0,1,19.102-7.38391,29.76215,29.76215,0,0,1,11.19371,2.28729,28.31637,28.31637,0,0,1,9.95639,6.76407l-7.43106,9.71717a16.91991,16.91991,0,0,0-6.05-4.57341,17.10559,17.10559,0,0,0-7.09756-1.61913,13.90884,13.90884,0,0,0-9.67,3.66839q-4.04961,3.6678-4.049,10.19324,0,6.526,4.049,10.14611A13.76391,13.76391,0,0,0,709.26684,224.1019Z"/><path d="M790.81634,236.01091H777.38246v-6.19254q-5.52555,6.95556-13.67073,6.955a20.32551,20.32551,0,0,1-13.67073-4.716,15.69819,15.69819,0,0,1-5.52556-12.576q0-7.85881,5.71528-11.76524,5.71647-3.90643,15.62454-3.90643h10.6705v-.28518q0-8.19289-8.66956-8.19348a23.44369,23.44369,0,0,0-7.86,1.47655,25.49439,25.49439,0,0,0-7.00211,3.66839l-6.38345-9.24227a38.23317,38.23317,0,0,1,23.05559-7.3356q9.33477,0,15.24273,4.66886,5.90559,4.66827,5.90737,14.76665Zm-14.386-19.52978v-2.477H767.4744q-8.57294,0-8.57411,5.33466a4.90641,4.90641,0,0,0,2.04807,4.23992,9.91216,9.91216,0,0,0,5.85906,1.47655,10.41941,10.41941,0,0,0,6.71693-2.33443A7.59285,7.59285,0,0,0,776.43031,216.48113Z"/><path d="M827.49434,195.04468v22.96013a6.58682,6.58682,0,0,0,1.52486,4.62055,4.74088,4.74088,0,0,0,3.62008,1.66745,8.25227,8.25227,0,0,0,6.76407-3.62008l5.33584,10.00352q-6.671,6.09651-14.05254,6.09709a17.40855,17.40855,0,0,1-12.48054-4.85858q-5.09779-4.85917-5.09662-13.243V195.04468h-6.00282V184.756h6.00282V169.4178h14.38485V184.756h12.38509v10.2887Z"/><path d="M860.69486,178.23a8.50935,8.50935,0,1,1,5.95332,2.42988A8.09249,8.09249,0,0,1,860.69486,178.23Zm13.0992,57.781H859.50349V184.756h14.29057Z"/><path d="M945.72184,210.38286a25.34738,25.34738,0,0,1-7.71623,18.76853q-7.71741,7.62372-19.38838,7.62195-11.66979,0-19.38719-7.62195a26.74122,26.74122,0,0,1,0-37.5842q7.71739-7.66616,19.38719-7.66909,11.66979,0,19.38838,7.66909A25.50853,25.50853,0,0,1,945.72184,210.38286Zm-39.822,0a14.68573,14.68573,0,0,0,3.57176,10.24156,12.55373,12.55373,0,0,0,18.29246,0,14.68568,14.68568,0,0,0,3.57176-10.24156,14.86792,14.86792,0,0,0-3.57176-10.2887,12.45521,12.45521,0,0,0-18.29246,0A14.868,14.868,0,0,0,905.89983,210.38286Z"/><path d="M108.63034,196.691a6.76155,6.76155,0,0,1,5.41558,2.27292l9.04067,12.313L80.36735,268.66555l-18.38292-10.9597,41.24136-58.75648a6.7816,6.7816,0,0,1,5.40455-2.25833m0-2.75289a9.44444,9.44444,0,0,0-7.63454,3.39656l-42.96843,61.217,23.06452,13.75081,45.41821-61.01437-10.24519-13.95345a9.44451,9.44451,0,0,0-7.63457-3.39656Z"/><path d="M212.10953,196.691a6.78159,6.78159,0,0,1,5.40455,2.25833l41.24138,58.75648-18.38293,10.9597-42.71924-57.38863,9.03313-12.30273a6.76249,6.76249,0,0,1,5.42311-2.28315m0-2.75289a9.44451,9.44451,0,0,0-7.63456,3.39656L194.2298,211.28816,239.648,272.30253l23.06451-13.75081-42.96842-61.217a9.44445,9.44445,0,0,0-7.63455-3.39656Z"/><path d="M160.31438,170.51743a6.7624,6.7624,0,0,1,5.42271,2.28262l72.368,97.663L159.8865,314.4244l-77.096-44.3693,72.1008-97.25452a6.7625,6.7625,0,0,1,5.42313-2.28315m0-2.75289a9.44449,9.44449,0,0,0-7.63456,3.39657l-73.94192,99.738,81.13247,46.69228L242.176,271.333l-74.227-100.17188a9.44453,9.44453,0,0,0-7.63458-3.39657Z"/><path d="M159.81381,317.20347,113.80221,290.579l2.90286-.96551c16.23275-5.39786,31.548-16.868,39.017-29.22217,2.56739-4.24647,8.02977-15.41933,3.31111-27.429-.8357-2.12765-1.9629-4.47882-3.15615-6.96825-3.52905-7.36267-7.529-15.70775-7.529-24.77215,0-14.80907,7.6895-30.25912,9.61322-31.78265h0c.13749-.10869.154-.14018.18108-.19241a2.08524,2.08524,0,0,1,2.172-1.01966c.386,0,.76292.01306,1.12028.03879a2.45888,2.45888,0,0,1,2.30834,1.98593,7.01026,7.01026,0,0,1,.07374,2.14532c-.0119.16284-.02342.31876-.02919.46163-.27939,7.04237,2.62308,23.51515,5.35446,30.38931,2.93743,7.39186,10.6275,14.87781,15.7162,19.83093,1.30443,1.27006,2.431,2.36692,3.29421,3.28135,11.75834,12.45943,15.9305,26.76769,15.9305,35.23489,0,21.61486-13.67361,39.88424-14.25584,40.65119l-.19644.25924Zm-39.40609-25.98268,39.51017,22.86264L187.82007,300.329c1.64068-2.27283,13.51-19.39581,13.51-38.73362,0-7.96256-3.97552-21.47353-15.17967-33.34536-.82322-.87218-1.93044-1.95021-3.21241-3.198-5.25634-5.11673-13.19969-12.84924-16.35411-20.78723-2.88788-7.26781-5.84278-24.05628-5.54687-31.51534.00672-.17091.02-.35717.03418-.55189a7.11924,7.11924,0,0,0,.0194-1.1944c-.26481-.01613-.543-.02612-.79864-.023a3.49441,3.49441,0,0,1-.5924.59413c-1.08341,1.13641-8.59855,15.15087-8.59855,29.6477,0,8.43878,3.85627,16.48391,7.25859,23.582,1.21552,2.5359,2.36346,4.93124,3.236,7.15144,5.16761,13.153-.73854,25.26374-3.51773,29.86008C150.72924,273.9703,136.15733,285.28487,120.40772,291.22079Z"/><rect x="158.48941" y="136.48297" width="2.75289" height="34.49713"/><polygon points="176.19 145.618 159.866 153.376 159.866 137.859 176.19 145.618"/><path d="M159.86585,154.75273a1.37628,1.37628,0,0,1-1.37644-1.37645V137.85941a1.37638,1.37638,0,0,1,1.96731-1.24318l16.32434,7.75863a1.37646,1.37646,0,0,1,0,2.48636l-16.32434,7.75824A1.37625,1.37625,0,0,1,159.86585,154.75273Zm1.37645-14.715v11.16056l11.74125-5.58028Z"/><path d="M160.80736,86.57306l98.46328,56.84774V257.11647L160.80732,313.9644,62.34381,257.11647V143.42085l98.46355-56.84779m0-10.4445-107.50872,62.07V262.33872L160.80732,324.4089l107.50853-62.07018V138.19855l-107.50853-62.07Z"/><rect x="156.92046" y="294.98086" width="13.04164" height="2.75288" transform="translate(-173.47882 264.33323) rotate(-55.69361)"/><rect x="168.95935" y="273.56896" width="10.8178" height="2.75291" transform="translate(-142.0562 351.59288) rotate(-71.23392)"/><rect x="174.96486" y="252.24804" width="9.51282" height="2.75301" transform="translate(-77.31615 428.42989) rotate(-88.89691)"/><rect x="174.58015" y="230.70415" width="2.75271" height="8.06769" transform="translate(-98.01127 129.83673) rotate(-32.1936)"/><rect x="164.06518" y="214.58222" width="2.75288" height="8.01466" transform="translate(-79.91652 96.31239) rotate(-26.38947)"/><rect x="157.70397" y="200.24339" width="2.7528" height="7.0258" transform="translate(-23.27335 20.53426) rotate(-6.88339)"/><rect x="156.7341" y="185.2319" width="2.75289" height="6.50009"/></svg>